{"accessors" : [{"bufferView" : 0, "byteOffset" : 0, "componentType" : 5123, "count" : 15330, "type" : "SCALAR", "max" : [15329], "min" : [0]}, {"bufferView" : 1, "byteOffset" : 0, "componentType" : 5126, "count" : 15330, "type" : "VEC3", "max" : [7.18687629699707, 13.050346374511719, 15.758472442626953], "min" : [-7.18687629699707, -13.050346374511719, -15.758472442626953], "name" : "POSITION"}, {"bufferView" : 1, "byteOffset" : 12, "componentType" : 5126, "count" : 15330, "type" : "VEC3", "max" : [0.9999970197677612, 1.0000044107437134, 1.0000044107437134], "min" : [-0.9999970197677612, -1.0000030994415283, -0.9879853129386902], "name" : "NORMAL"}, {"bufferView" : 1, "byteOffset" : 24, "componentType" : 5126, "count" : 15330, "type" : "VEC2", "max" : [0, 1], "min" : [0, 1], "name" : "TEXCOORD_0"}, {"bufferView" : 1, "byteOffset" : 32, "componentType" : 5126, "count" : 15330, "type" : "VEC2", "max" : [0, 1], "min" : [0, 1], "name" : "TEXCOORD_1"}, {"bufferView" : 0, "byteOffset" : 30660, "componentType" : 5123, "count" : 378, "type" : "SCALAR", "max" : [377], "min" : [0]}, {"bufferView" : 2, "byteOffset" : 0, "componentType" : 5126, "count" : 378, "type" : "VEC3", "max" : [-6.023712158203125, 9.966899871826172, 12.898820877075195], "min" : [-6.765305042266846, 8.368047714233398, 11.29994010925293], "name" : "POSITION"}, {"bufferView" : 2, "byteOffset" : 12, "componentType" : 5126, "count" : 378, "type" : "VEC3", "max" : [1.0000044107437134, 0.9876664876937866, 0.9876644611358643], "min" : [-0.9999642968177795, -0.9876610040664673, -0.9876641035079956], "name" : "NORMAL"}, {"bufferView" : 2, "byteOffset" : 24, "componentType" : 5126, "count" : 378, "type" : "VEC2", "max" : [0, 1], "min" : [0, 1], "name" : "TEXCOORD_0"}, {"bufferView" : 2, "byteOffset" : 32, "componentType" : 5126, "count" : 378, "type" : "VEC2", "max" : [0, 1], "min" : [0, 1], "name" : "TEXCOORD_1"}], "asset" : {"generator" : "Aspose.3D 24.6.0", "version" : "2.0"}, "buffers" : [{"uri" : "data:application/octet-stream;base64,", "byteLength" : 659748}], "bufferViews" : [{"buffer" : 0, "byteOffset" : 0, "byteLength" : 31416, "target" : 34963}, {"buffer" : 0, "byteOffset" : 31420, "byteLength" : 613200, "byteStride" : 40, "target" : 34962}, {"buffer" : 0, "byteOffset" : 644624, "byteLength" : 15120, "byteStride" : 40, "target" : 34962}], "materials" : [{"name" : "dbl_Layer0_001", "pbrMetallicRoughness" : {"baseColorFactor" : [0, 0, 0, 1], "metallicFactor" : 1, "roughnessFactor" : 1}, "emissiveFactor" : [0, 0, 0], "alphaMode" : "OPAQUE", "doubleSided" : false}, {"name" : "dbl_Layer0_002", "pbrMetallicRoughness" : {"baseColorFactor" : [0, 0, 0, 1], "metallicFactor" : 1, "roughnessFactor" : 1}, "emissiveFactor" : [0, 0, 0], "alphaMode" : "OPAQUE", "doubleSided" : false}], "meshes" : [{"primitives" : [{"attributes" : {"POSITION" : 1, "NORMAL" : 2, "TEXCOORD_0" : 3, "TEXCOORD_1" : 4}, "indices" : 0, "material" : 0, "mode" : 4}, {"attributes" : {"POSITION" : 6, "NORMAL" : 7, "TEXCOORD_0" : 8, "TEXCOORD_1" : 9}, "indices" : 5, "material" : 1, "mode" : 4}], "name" : ""}], "nodes" : [{"matrix" : [1, 0, 0, 0, 0, 6.123233995736766E-17, -1, 0, 0, 1, 6.123233995736766E-17, 0, 0, 15.758472442626953, 0, 1], "mesh" : 0, "name" : "Layer0_001"}], "scene" : 0, "scenes" : [{"nodes" : [0]}]}